<svg id="图层_1" data-name="图层 1" xmlns="http://www.w3.org/2000/svg" viewBox="0 0 74.51 76.27"><defs><style>.cls-1{fill:#f2cac1;}.cls-1,.cls-2,.cls-3,.cls-4,.cls-5,.cls-6{stroke:#2a3244;stroke-linejoin:round;stroke-width:3px;}.cls-2{fill:#f3596b;}.cls-3{fill:#64a6f0;}.cls-4{fill:#f3b55e;}.cls-5{fill:none;}.cls-6{fill:#ffca6b;}</style></defs><title>24</title><circle class="cls-1" cx="23.08" cy="23.87" r="2.96"/><circle class="cls-1" cx="51.42" cy="23.87" r="2.96"/><path class="cls-2" d="M50,62.63l-19.33.79L14.61,83.88A1.71,1.71,0,0,0,16,86.64h68.1a1.71,1.71,0,0,0,1.34-2.76l-16-20.44Z" transform="translate(-12.75 -11.86)"/><path class="cls-3" d="M60.18,56.63H60a3.41,3.41,0,0,1-3.41-3.41V47.86H43.38v5.36A3.41,3.41,0,0,1,40,56.63h-.15A14.58,14.58,0,0,0,25.28,71.16V84.85A1.71,1.71,0,0,0,27,86.55H73a1.71,1.71,0,0,0,1.71-1.7V71.16A14.58,14.58,0,0,0,60.18,56.63Z" transform="translate(-12.75 -11.86)"/><rect class="cls-1" x="24.32" y="1.5" width="25.87" height="36.96" rx="12.93"/><path class="cls-4" d="M62.93,26.3V28h0c-.13.07-.26.15-.4.21l-.2.11-.28.14-.3.14-.08,0-.28.12c-3.36,1.25-6.56-.53-8.29-2.7-1.76-.87-6.93.32-10.88,2a4.43,4.43,0,0,1-.44.14c-.83.26-1.61.45-2.33.6L38.8,29c-8.65,1.5-9.9-4.54-10.12-7.78,1.53,3.6,5.24,2.55,6.83,2a5.08,5.08,0,0,0,2.65-2.09,4.62,4.62,0,0,0,.45-.92h0a13.1,13.1,0,0,1,2.26-3A12.91,12.91,0,0,1,62.93,26.3Z" transform="translate(-12.75 -11.86)"/><line class="cls-5" x1="20.86" y1="63.28" x2="20.86" y2="74.19"/><line class="cls-5" x1="53.65" y1="63.28" x2="53.65" y2="74.19"/><polygon class="cls-6" points="38.24 69.66 47.61 60.18 28.87 60.18 38.24 69.66"/><path class="cls-2" d="M36,65.28a3.76,3.76,0,0,0,3.75-3.75v-4.9a14.35,14.35,0,0,0-7.5,2.14v2.76A3.76,3.76,0,0,0,36,65.28Z" transform="translate(-12.75 -11.86)"/><path class="cls-2" d="M64,65.28h0a3.76,3.76,0,0,0,3.75-3.75V58.77a14.35,14.35,0,0,0-7.5-2.14v4.9A3.76,3.76,0,0,0,64,65.28Z" transform="translate(-12.75 -11.86)"/><path class="cls-4" d="M38.16,21.11c.13-.31.29-.62.45-.92A4.62,4.62,0,0,1,38.16,21.11Z" transform="translate(-12.75 -11.86)"/></svg>